{"asset":{"version":"2.0","generator":"babylon.js glTF exporter for Maya 2018 v20200410.2"},"scene":0,"scenes":[{"nodes":[0]}],"nodes":[{"children":[1],"scale":[100.0,100.0,100.0],"name":"SimLabCorrectionTransform"},{"children":[2],"rotation":[-0.707106769,0.0,0.0,0.707106769],"name":"RootNodeFBXASC032FBXASC040gltfFBXASC032orientationFBXASC032matrixFBXASC041_TRS"},{"children":[3],"translation":[-4.59773863E-09,3.210547E-08,-5.65357325E-08],"rotation":[0.7287577,0.0321873054,-0.0409873277,0.6827857],"name":"RootNodeFBXASC032FBXASC040modelFBXASC032correctionFBXASC032matrixFBXASC041_Matrix"},{"children":[4],"name":"modelFBXASC046objFBXASC046cleanerFBXASC046materialmergerFBXASC046gles_TRS"},{"children":[5],"name":"UnnamedGLTFNode_TRS"},{"children":[6],"name":"AssemblyFBXASC0456"},{"mesh":0,"name":"FBXASC051DGeomFBXASC0451"}],"meshes":[{"primitives":[{"attributes":{"POSITION":1,"TANGENT":2,"NORMAL":3,"TEXCOORD_0":4},"indices":0,"material":0}],"name":"FBXASC051DGeomFBXASC0451"}],"accessors":[{"bufferView":0,"componentType":5123,"count":21000,"type":"SCALAR","name":"accessorIndices"},{"bufferView":1,"componentType":5126,"count":21000,"max":[0.00688687852,0.0108353393,0.0104171894],"min":[-0.00687749963,-0.0108353393,-0.0104163382],"type":"VEC3","name":"accessorPositions"},{"bufferView":2,"componentType":5126,"count":21000,"type":"VEC4","name":"accessorTangents"},{"bufferView":1,"byteOffset":252000,"componentType":5126,"count":21000,"type":"VEC3","name":"accessorNormals"},{"bufferView":3,"componentType":5126,"count":21000,"type":"VEC2","name":"accessorUVs"}],"bufferViews":[{"buffer":0,"byteLength":42000,"name":"bufferViewScalar"},{"buffer":0,"byteOffset":42000,"byteLength":504000,"byteStride":12,"name":"bufferViewFloatVec3"},{"buffer":0,"byteOffset":546000,"byteLength":336000,"byteStride":16,"name":"bufferViewFloatVec4"},{"buffer":0,"byteOffset":882000,"byteLength":168000,"byteStride":8,"name":"bufferViewFloatVec2"}],"buffers":[{"uri":"meteorite.bin","byteLength":1050000}],"materials":[{"pbrMetallicRoughness":{"baseColorTexture":{"index":0},"metallicFactor":0.0,"roughnessFactor":0.2581639},"emissiveFactor":[0.3,0.3,0.3],"name":"model","extras":{"SimLabOpacity":1.0}}],"textures":[{"sampler":0,"source":0,"name":"model_baseColor.jpeg"}],"images":[{"uri":"model_baseColor.jpeg"}],"samplers":[{"magFilter":9729,"minFilter":9987}]}